<svg width="368" height="546" viewBox="0 0 368 546" fill="none" xmlns="http://www.w3.org/2000/svg">
    <g id="svg-robot" clip-path="url(#clip0_2_41)">
        <g id="robot-svgrepo-com 1" clip-path="url(#clip1_2_41)">
            <g id="Group">
                <path id="Vector" d="M306.797 429.338H278.92C277.317 429.338 275.763 429.534 274.264 429.875V529H314.336C321.751 529 327.761 522.989 327.761 515.575V450.3C327.761 438.723 318.374 429.338 306.797 429.338Z" fill="#578CAD" />
                <path id="Vector_2" d="M88.77 429.338H60.891C49.319 429.338 39.936 438.717 39.931 450.289V515.574C39.931 522.988 45.941 528.999 53.356 528.999H93.429V429.874C91.928 429.534 90.373 429.338 88.77 429.338Z" fill="#578CAD" />
            </g>
            <path id="Vector_3" d="M183.846 344.261C179.211 344.261 175.456 340.504 175.456 335.871V83.38C175.456 78.746 179.212 74.99 183.846 74.99C188.481 74.99 192.236 78.747 192.236 83.38V335.87C192.237 340.504 188.481 344.261 183.846 344.261Z" fill="#CAE9F7" />
            <g id="Group_2">
                <path id="Vector_4" d="M304.96 270.865C304.96 282.442 295.574 291.827 283.998 291.827H83.695C72.115 291.827 62.733 282.442 62.733 270.865V140.435C62.733 128.858 72.116 119.473 83.695 119.473H283.999C295.576 119.473 304.961 128.858 304.961 140.435L304.96 270.865Z" fill="#90C8EC" />
                <path id="Vector_5" d="M214.24 529H276.502V367.049C276.502 346.407 259.769 329.676 239.129 329.676H128.566C107.924 329.676 91.192 346.409 91.192 367.049V528.999H214.24" fill="#90C8EC" />
            </g>
            <g id="Group_3">
                <path id="Vector_6" d="M131.866 204.485C143.122 204.485 152.247 195.36 152.247 184.104C152.247 172.848 143.122 163.723 131.866 163.723C120.61 163.723 111.485 172.848 111.485 184.104C111.485 195.36 120.61 204.485 131.866 204.485Z" fill="#CAE9F7" />
                <path id="Vector_7" d="M235.829 204.484C247.085 204.484 256.209 195.36 256.209 184.104C256.209 172.848 247.085 163.724 235.829 163.724C224.573 163.724 215.449 172.848 215.449 184.104C215.449 195.36 224.573 204.484 235.829 204.484Z" fill="#CAE9F7" />
            </g>
            <g id="Group_4">
                <path id="Vector_8" d="M183.26 466.548C207.381 466.548 226.935 446.994 226.935 422.873C226.935 398.752 207.381 379.198 183.26 379.198C159.139 379.198 139.585 398.752 139.585 422.873C139.585 446.994 159.139 466.548 183.26 466.548Z" fill="#578CAD" />
                <path id="Vector_9" d="M183.842 83.379C202.172 83.379 217.031 68.5198 217.031 50.19C217.031 31.8602 202.172 17.001 183.842 17.001C165.512 17.001 150.653 31.8602 150.653 50.19C150.653 68.5198 165.512 83.379 183.842 83.379Z" fill="#578CAD" />
                <path id="Vector_10" d="M63.096 154.152C35.261 154.867 12.912 177.642 12.912 205.65C12.912 233.657 35.262 256.431 63.096 257.147V154.152Z" fill="#578CAD" />
            </g>
            <g id="Group_5">
                <path id="Vector_11" opacity="0.1" d="M58.292 515.575V450.29C58.298 438.718 67.681 429.339 79.252 429.339H60.891C49.319 429.339 39.936 438.718 39.931 450.29V515.575C39.931 522.989 45.941 529 53.356 529H71.717C64.302 529 58.292 522.989 58.292 515.575Z" fill="#231F20" />
                <path id="Vector_12" opacity="0.1" d="M81.092 270.865V140.435C81.092 128.858 90.475 119.473 102.054 119.473H83.693C72.113 119.473 62.731 128.858 62.731 140.435V270.865C62.731 282.442 72.114 291.827 83.693 291.827H102.054C90.475 291.827 81.092 282.442 81.092 270.865Z" fill="#231F20" />
                <path id="Vector_13" opacity="0.1" d="M146.926 329.676H128.565C107.923 329.676 91.191 346.409 91.191 367.049V528.999H109.552V367.049C109.552 346.409 126.284 329.676 146.926 329.676Z" fill="#231F20" />
                <path id="Vector_14" opacity="0.1" d="M157.953 422.876C157.953 401.908 172.736 384.397 192.444 380.179C189.484 379.546 186.413 379.205 183.264 379.205C159.145 379.205 139.592 398.758 139.592 422.877C139.592 446.996 159.146 466.548 183.264 466.548C186.413 466.548 189.484 466.207 192.444 465.574C172.735 461.353 157.953 443.844 157.953 422.876Z" fill="#231F20" />
                <path id="Vector_15" opacity="0.1" d="M169.018 50.19C169.018 35.047 179.164 22.28 193.027 18.296C190.11 17.459 187.032 17 183.846 17C165.515 17 150.657 31.861 150.657 50.19C150.657 68.52 165.515 83.38 183.846 83.38C187.032 83.38 190.11 82.921 193.026 82.083C179.164 78.1 169.018 65.335 169.018 50.19Z" fill="#231F20" />
                <path id="Vector_16" opacity="0.1" d="M31.271 205.651C31.271 184.289 42.17 165.492 58.698 154.466C32.945 157.323 12.911 179.135 12.911 205.651C12.911 232.166 32.945 253.978 58.699 256.836C42.17 245.809 31.271 227.011 31.271 205.651Z" fill="#231F20" />
            </g>
            <path id="Vector_17" d="M304.906 154.152C332.741 154.867 355.09 177.642 355.09 205.65C355.09 233.657 332.74 256.431 304.906 257.147V154.152V154.152Z" fill="#578CAD" />
            <path id="Vector_18" d="M181.479 267.611C163.235 267.611 147.448 255.254 143.088 237.559C141.979 233.059 144.728 228.513 149.226 227.404C153.726 226.295 158.272 229.044 159.381 233.542C161.889 243.721 170.977 250.83 181.479 250.83C191.935 250.83 201.013 243.761 203.557 233.64C204.687 229.145 209.245 226.418 213.74 227.549C218.234 228.678 220.961 233.238 219.831 237.732C215.41 255.324 199.638 267.611 181.479 267.611Z" fill="#CAE9F7" />
        </g>
    </g>
    <defs>
        <clipPath id="clip0_2_41">
            <rect width="368" height="546" fill="white" />
        </clipPath>
        <clipPath id="clip1_2_41">
            <rect width="512" height="512" fill="white" transform="translate(-72 17)" />
        </clipPath>
    </defs>
</svg>